<svg width="640" height="480" xmlns="http://www.w3.org/2000/svg">
 <!-- Created with SVG-edit - http://svg-edit.googlecode.com/ -->
 <g>
  <title>Layer 1</title>
  <text xml:space="preserve" text-anchor="middle" font-family="serif" font-size="24" id="svg_1" y="214" x="113" stroke-width="0" stroke="#000000" fill="#ff0000">JPassion.com Rocks!</text>
  <path fill="#00ffff" stroke="#000000" stroke-width="5" d="m368.597015,304.543701c-6.913025,-0.69635 -0.157379,-11.506134 -2.762878,-16.51004c-0.029144,-7.367676 -2.762878,-14.624603 -1.871063,-21.954498c5.438324,-12.919556 0.903473,-27.031219 -0.291443,-40.338501c-0.542084,-2.940659 -0.518768,-10.489029 -1.865234,-3.7771c-3.712982,11.313812 -0.081604,25.297241 -3.258331,36.756775c-5.310089,6.379608 -9.320343,-3.742126 -4.249237,-7.621231c5.91629,-9.320343 4.48822,-21.872787 4.686401,-33.492615c-0.25647,-7.347275 2.692932,-16.574356 11.412903,-16.784195c7.460938,-0.565399 14.531342,2.990204 22.056396,2.550125c21.963135,0.343903 44.136108,0.536255 65.813629,-3.465256c10.818359,-2.494751 21.595917,1.908951 32.437592,0.122406c6.085327,0.655746 9.308685,-2.19165 6.621582,-7.536713c4.54068,-3.130096 8.032166,5.933777 10.04895,-2.139191c7.303589,-5.036133 8.317749,9.830368 16.414063,5.633591c9.757507,1.261948 -4.243408,9.993576 3.92865,14.362305c4.942871,3.812073 12.508728,13.254822 2.681274,15.976898c-8.451843,-0.591629 -16.927002,-0.040802 -25.378845,0.370132c-3.911163,6.534149 -12.054077,11.436218 -11.162262,19.99881c-0.676147,10.217987 -7.833984,20.290253 -17.626465,23.461151c-4.190948,-0.827698 -6.015381,0.524597 -5.490784,4.811584c-2.162506,5.604584 -2.547211,11.515045 -2.284912,17.474884c-0.641174,3.284729 0.716949,5.840515 2.65213,8.370239c-2.273254,3.94339 -15.312408,1.606018 -10.369537,-5.852173c1.264862,-9.780792 -0.227325,-19.602417 -1.334808,-29.330719c-5.193512,-3.695465 -11.488678,-2.34021 -16.752136,0.629517c-11.599426,4.252228 -25.029114,8.282806 -36.925812,2.821167c-6.63324,-1.853577 -16.635559,-3.232025 -21.566772,2.363678c-2.220795,8.440186 -1.63208,17.500977 -3.52063,26.06665c-0.034973,4.476563 4.225922,8.320435 -2.990204,7.07312c-3.013519,0.069946 -6.038696,0.163208 -9.052216,-0.040802l0,0zm6.161102,-9.527069c1.183258,-4.010254 -1.713684,-14.199097 -1.964325,-4.698059c-0.985077,3.016266 0.273956,17.49823 1.742828,7.886444c0.099091,-1.063934 0.163208,-2.124786 0.221497,-3.188385z" id="svg_2"/>
 </g>
</svg>